<?xml version="1.0" encoding="utf-8"?>
<svg width="393" height="195" viewBox="0 0 393 195" fill="none" xmlns="http://www.w3.org/2000/svg">
  <defs>
    <linearGradient id="gradient_1" gradientUnits="userSpaceOnUse" x1="92" y1="0" x2="92" y2="184">
      <stop offset="0" stop-color="#F93C3C" />
      <stop offset="0.505" stop-color="#FF5E00" />
      <stop offset="1" stop-color="#FF4400" />
    </linearGradient>
  </defs>
  <g>
    <g fill="#000000" fill-rule="evenodd">
      <rect width="393" height="195" />
      <path d="M393 0L0 0L0 195L393 195L393 0ZM1 194L1 1L392 1L392 194L1 194Z" fill="#000000" fill-rule="evenodd" />
    </g>
    <g fill="url(#gradient_1)" fill-rule="evenodd" transform="translate(104 5)">
      <path d="M0 92C0 41.1898 41.1898 0 92 0C142.81 0 184 41.1898 184 92C184 142.81 142.81 184 92 184C41.1898 184 0 142.81 0 92Z" />
      <path d="M92 0C41.1898 0 0 41.1898 0 92C0 142.81 41.1898 184 92 184C142.81 184 184 142.81 184 92C184 41.1898 142.81 0 92 0ZM8.15082 127.421Q1 110.514 1 92Q1 73.4855 8.15082 56.579Q15.058 40.2487 27.6533 27.6533Q40.2488 15.058 56.579 8.15082Q73.4856 1 92 0.999992Q110.515 1 127.421 8.15082Q143.752 15.0582 156.347 27.6533Q168.942 40.2489 175.849 56.579Q183 73.4851 183 92Q183 110.515 175.849 127.421Q168.942 143.751 156.347 156.347Q143.752 168.942 127.421 175.849Q110.515 183 91.9999 183Q73.4854 183 56.579 175.849Q40.2485 168.942 27.6533 156.347Q15.0579 143.751 8.15082 127.421Z" fill="#FFFFFF" fill-rule="evenodd" />
    </g>
    <path d="M18.232 84.28Q12.126 84.28 7.009 82.001Q1.892 79.722 -1.376 75.508L6.364 66.22Q8.858 69.488 11.61 71.165Q14.362 72.842 17.544 72.842Q26.058 72.842 26.058 62.866L26.058 34.228L4.902 34.228L4.902 23.048L39.904 23.048L39.904 62.092Q39.904 73.272 34.4 78.776Q28.896 84.28 18.232 84.28ZM44.462 83.248L71.294 23.048L85.054 23.048L111.972 83.248L97.352 83.248L75.336 30.1L80.84 30.1L58.738 83.248L44.462 83.248ZM57.878 70.348L61.576 59.77L92.536 59.77L96.32 70.348L57.878 70.348ZM146.458 84.28Q139.32 84.28 133.343 82.001Q127.366 79.722 122.937 75.508Q118.508 71.294 116.057 65.618Q113.606 59.942 113.606 53.148Q113.606 46.354 116.057 40.678Q118.508 35.002 122.98 30.788Q127.452 26.574 133.472 24.295Q139.492 22.016 146.716 22.016Q154.714 22.016 161.121 24.682Q167.528 27.348 171.914 32.422L162.97 40.678Q159.702 37.238 155.832 35.561Q151.962 33.884 147.404 33.884Q143.018 33.884 139.406 35.26Q135.794 36.636 133.171 39.216Q130.548 41.796 129.129 45.322Q127.71 48.848 127.71 53.148Q127.71 57.362 129.129 60.888Q130.548 64.414 133.171 67.037Q135.794 69.66 139.363 71.036Q142.932 72.412 147.232 72.412Q151.36 72.412 155.273 71.079Q159.186 69.746 162.884 66.564L170.796 76.626Q165.894 80.324 159.401 82.302Q152.908 84.28 146.458 84.28ZM170.796 76.626L158.068 74.82L158.068 52.202L170.796 52.202L170.796 76.626ZM210.442 84.28Q197.628 84.28 190.404 77.142Q183.18 70.004 183.18 56.76L183.18 23.048L197.112 23.048L197.112 56.244Q197.112 64.844 200.638 68.628Q204.164 72.412 210.528 72.412Q216.892 72.412 220.418 68.628Q223.944 64.844 223.944 56.244L223.944 23.048L237.704 23.048L237.704 56.76Q237.704 70.004 230.48 77.142Q223.256 84.28 210.442 84.28ZM242.262 83.248L269.094 23.048L282.854 23.048L309.772 83.248L295.152 83.248L273.136 30.1L278.64 30.1L256.538 83.248L242.262 83.248ZM255.678 70.348L259.376 59.77L290.336 59.77L294.12 70.348L255.678 70.348ZM316.05 83.248L316.05 23.048L341.764 23.048Q354.32 23.048 361.286 28.853Q368.252 34.658 368.252 44.892Q368.252 51.6 365.07 56.459Q361.888 61.318 356.04 63.898Q350.192 66.478 342.108 66.478L323.79 66.478L329.982 60.372L329.982 83.248L316.05 83.248ZM354.32 83.248L339.27 61.404L354.148 61.404L369.37 83.248L354.32 83.248ZM329.982 61.92L323.79 55.384L341.334 55.384Q347.784 55.384 350.966 52.589Q354.148 49.794 354.148 44.892Q354.148 39.904 350.966 37.152Q347.784 34.4 341.334 34.4L323.79 34.4L329.982 27.778L329.982 61.92Z" fill="#FFFFFF" transform="translate(10 45)" />
    <path d="M6.64 19.52Q4.9 19.52 3.54 18.81Q2.18 18.1 1.41 16.84Q0.64 15.58 0.64 13.98Q0.64 12.36 1.41 11.11Q2.18 9.86 3.54 9.15Q4.9 8.44 6.64 8.44Q8.34 8.44 9.6 9.15Q10.86 9.86 11.46 11.18L9.04 12.48Q8.62 11.72 7.99 11.36Q7.36 11 6.62 11Q5.82 11 5.18 11.36Q4.54 11.72 4.17 12.38Q3.8 13.04 3.8 13.98Q3.8 14.92 4.17 15.58Q4.54 16.24 5.18 16.6Q5.82 16.96 6.62 16.96Q7.36 16.96 7.99 16.61Q8.62 16.26 9.04 15.48L11.46 16.8Q10.86 18.1 9.6 18.81Q8.34 19.52 6.64 19.52ZM18.24 19.52Q16.52 19.52 15.19 18.8Q13.86 18.08 13.09 16.83Q12.32 15.58 12.32 13.98Q12.32 12.36 13.09 11.11Q13.86 9.86 15.19 9.15Q16.52 8.44 18.24 8.44Q19.94 8.44 21.28 9.15Q22.62 9.86 23.38 11.1Q24.14 12.34 24.14 13.98Q24.14 15.58 23.38 16.83Q22.62 18.08 21.28 18.8Q19.94 19.52 18.24 19.52ZM18.24 16.96Q19.02 16.96 19.64 16.6Q20.26 16.24 20.62 15.57Q20.98 14.9 20.98 13.98Q20.98 13.04 20.62 12.38Q20.26 11.72 19.64 11.36Q19.02 11 18.24 11Q17.46 11 16.84 11.36Q16.22 11.72 15.85 12.38Q15.48 13.04 15.48 13.98Q15.48 14.9 15.85 15.57Q16.22 16.24 16.84 16.6Q17.46 16.96 18.24 16.96ZM26.22 19.36L26.22 4.52L29.34 4.52L29.34 19.36L26.22 19.36ZM37.58 19.52Q35.74 19.52 34.35 18.8Q32.96 18.08 32.2 16.83Q31.44 15.58 31.44 13.98Q31.44 12.36 32.19 11.11Q32.94 9.86 34.24 9.15Q35.54 8.44 37.18 8.44Q38.76 8.44 40.03 9.11Q41.3 9.78 42.04 11.03Q42.78 12.28 42.78 14.02Q42.78 14.2 42.76 14.43Q42.74 14.66 42.72 14.86L33.98 14.86L33.98 13.04L41.08 13.04L39.88 13.58Q39.88 12.74 39.54 12.12Q39.2 11.5 38.6 11.15Q38 10.8 37.2 10.8Q36.4 10.8 35.79 11.15Q35.18 11.5 34.84 12.13Q34.5 12.76 34.5 13.62L34.5 14.1Q34.5 14.98 34.89 15.65Q35.28 16.32 35.99 16.67Q36.7 17.02 37.66 17.02Q38.52 17.02 39.17 16.76Q39.82 16.5 40.36 15.98L42.02 17.78Q41.28 18.62 40.16 19.07Q39.04 19.52 37.58 19.52ZM49.26 19.52Q47.36 19.52 46.3 18.55Q45.24 17.58 45.24 15.66L45.24 6.22L48.36 6.22L48.36 15.62Q48.36 16.3 48.72 16.67Q49.08 17.04 49.7 17.04Q50.44 17.04 50.96 16.64L51.8 18.84Q51.32 19.18 50.65 19.35Q49.98 19.52 49.26 19.52ZM43.58 11L43.58 8.6L51.04 8.6L51.04 11L43.58 11ZM53.56 19.36L53.56 8.6L56.68 8.6L56.68 19.36L53.56 19.36ZM55.12 7.1Q54.26 7.1 53.72 6.6Q53.18 6.1 53.18 5.36Q53.18 4.62 53.72 4.12Q54.26 3.62 55.12 3.62Q55.98 3.62 56.52 4.09Q57.06 4.56 57.06 5.3Q57.06 6.08 56.53 6.59Q56 7.1 55.12 7.1ZM62.5 19.36L57.98 8.6L61.2 8.6L64.96 17.86L63.36 17.86L67.26 8.6L70.26 8.6L65.72 19.36L62.5 19.36ZM76.36 19.52Q74.64 19.52 73.31 18.8Q71.98 18.08 71.21 16.83Q70.44 15.58 70.44 13.98Q70.44 12.36 71.21 11.11Q71.98 9.86 73.31 9.15Q74.64 8.44 76.36 8.44Q78.06 8.44 79.4 9.15Q80.74 9.86 81.5 11.1Q82.26 12.34 82.26 13.98Q82.26 15.58 81.5 16.83Q80.74 18.08 79.4 18.8Q78.06 19.52 76.36 19.52ZM76.36 16.96Q77.14 16.96 77.76 16.6Q78.38 16.24 78.74 15.57Q79.1 14.9 79.1 13.98Q79.1 13.04 78.74 12.38Q78.38 11.72 77.76 11.36Q77.14 11 76.36 11Q75.58 11 74.96 11.36Q74.34 11.72 73.97 12.38Q73.6 13.04 73.6 13.98Q73.6 14.9 73.97 15.57Q74.34 16.24 74.96 16.6Q75.58 16.96 76.36 16.96Z" fill="#FFFFFF" transform="translate(14 45)" />
  </g>
</svg>